<svg id="Layer_1" data-name="Layer 1" xmlns="http://www.w3.org/2000/svg" xmlns:xlink="http://www.w3.org/1999/xlink" viewBox="0 0 304.18 137.39"><defs><style>.cls-1{fill:url(#radial-gradient);}.cls-2{fill:url(#radial-gradient-2);}.cls-3{fill:url(#radial-gradient-3);}.cls-4{fill:url(#radial-gradient-4);}.cls-5{fill:url(#radial-gradient-5);}</style><radialGradient id="radial-gradient" cx="400.32" cy="348.45" r="158.63" gradientUnits="userSpaceOnUse"><stop offset="0" stop-color="#8dc63f"/><stop offset="0.08" stop-color="#7abf40"/><stop offset="0.29" stop-color="#4fb041"/><stop offset="0.49" stop-color="#2da442"/><stop offset="0.68" stop-color="#149b43"/><stop offset="0.86" stop-color="#059644"/><stop offset="1" stop-color="#009444"/></radialGradient><radialGradient id="radial-gradient-2" cx="400.33" cy="348.45" r="158.63" xlink:href="#radial-gradient"/><radialGradient id="radial-gradient-3" cx="400.33" cy="348.45" r="158.63" xlink:href="#radial-gradient"/><radialGradient id="radial-gradient-4" cx="400.33" cy="348.45" r="158.63" xlink:href="#radial-gradient"/><radialGradient id="radial-gradient-5" cx="400.33" cy="348.45" r="158.63" xlink:href="#radial-gradient"/></defs><path class="cls-1" d="M320.62,273.72c-4.69-6.85-3.27,49.72,15.18,69.1,9,9.42,23.84,23.62,43.48,28.27-3.67-29.69-24.73-57.73-51.89-66.75,34.28,7.82,62.33,42.64,61.66,76.88.45,14.15,2.22,34.77,3.15,28,16.54-123-40-89.05-71.58-135.5Z" transform="translate(-247.91 -273.15)"/><path class="cls-2" d="M323.67,332.69c-12.56-14.16-37.2-34.37-72.05-22.34-16.94,5.84,27.69-10.13,63.47,33.09,10,12.07,19.38,33.48,63.48,33.13-41.8-18-40.78-28-54.9-43.88Z" transform="translate(-247.91 -273.15)"/><path class="cls-3" d="M476.33,332.16c12.56-14.16,37.2-34.37,72.05-22.34,17,5.84-27.68-10.13-63.47,33.09-10,12.07-19.38,33.48-63.48,33.09,41.8-17.92,40.79-28,54.9-43.84Z" transform="translate(-247.91 -273.15)"/><path class="cls-4" d="M478.94,273.72c4.64-6.85,3.27,49.72-15.22,69.1-9,9.42-23.84,23.62-43.48,28.27,3.67-29.64,24.72-57.73,51.93-66.75-34.32,7.82-62.37,42.64-61.71,76.88-.22,13.71-2.16,34.77-3.09,28-16.59-123,40-89.05,71.57-135.5Z" transform="translate(-247.91 -273.15)"/><path class="cls-5" d="M411.44,307.12A11.44,11.44,0,1,1,400,295.66a11.47,11.47,0,0,1,11.46,11.46Z" transform="translate(-247.91 -273.15)"/></svg>